<svg width="64" height="64" viewBox="0 0 64 64" fill="none" xmlns="http://www.w3.org/2000/svg" aria-labelledby="Pay.com logo" role="img" class="h-12 w-12"><path d="M52.2691 0H11.7309C5.25208 0 0 5.25208 0 11.7309V52.2691C0 58.7479 5.25208 64 11.7309 64H52.2691C58.7479 64 64 58.7479 64 52.2691V11.7309C64 5.25208 58.7479 0 52.2691 0Z" fill="#ADABFF"></path><path d="M24.0551 27.0942C24.0638 27.8309 23.9237 28.5619 23.6433 29.2437C23.3629 29.9256 22.948 30.5443 22.4231 31.0629C21.898 31.5817 21.274 31.99 20.5876 32.2636C19.9013 32.5372 19.1667 32.6704 18.4278 32.6555H14.9643V38.4594H12.1764V21.5327H18.4335C19.1727 21.5162 19.9076 21.6484 20.5943 21.9214C21.2811 22.1945 21.9055 22.6028 22.4304 23.122C22.9551 23.6411 23.3695 24.2606 23.6487 24.9431C23.9279 25.6256 24.0662 26.3571 24.0551 27.0942ZM21.2673 27.0942C21.2673 25.382 20.0766 24.1437 18.4278 24.1437H14.9643V30.0445H18.4335C20.0822 30.0445 21.2729 28.7861 21.2729 27.0942H21.2673Z" fill="#111119"></path><path d="M37.42 26.3013V38.4412H34.7979V36.6934C33.8752 37.9799 32.4423 38.7564 30.548 38.7564C27.2437 38.7564 24.5012 35.9656 24.5012 32.3697C24.5012 28.7739 27.2437 25.9861 30.548 25.9861C32.4423 25.9861 33.8752 26.7625 34.7979 28.0232V26.3041L37.42 26.3013ZM34.7979 32.3697C34.7979 31.3522 34.3936 30.3764 33.674 29.6569C32.9544 28.9374 31.9783 28.5332 30.9606 28.5332C29.9429 28.5332 28.9669 28.9374 28.2472 29.6569C27.5276 30.3764 27.1234 31.3522 27.1234 32.3697C27.1234 34.6304 28.7741 36.2549 30.9606 36.2549C33.1472 36.2549 34.7979 34.6304 34.7979 32.3697Z" fill="#111119"></path><path d="M51.0812 26.4316L46.4387 38.9016C45.3002 41.9699 43.3248 43.5155 40.5524 43.3472V40.9063C42.2403 41.0032 43.1569 40.1335 43.7603 38.5395L43.8798 38.2971L38.7563 26.4316H41.6028L45.1949 35.2031L48.2832 26.4316H51.0812Z" fill="#111119"></path><path d="M50.9341 36.9038C50.9524 36.4438 51.148 36.0087 51.4799 35.6897C51.8119 35.3707 52.2544 35.1926 52.7147 35.1926C53.175 35.1926 53.6175 35.3707 53.9494 35.6897C54.2814 36.0087 54.4769 36.4438 54.4951 36.9038C54.5047 37.1435 54.4656 37.3828 54.3805 37.6071C54.2952 37.8315 54.1656 38.0363 53.9995 38.2093C53.8332 38.3823 53.6336 38.5199 53.4128 38.6139C53.1921 38.7079 52.9546 38.7564 52.7147 38.7564C52.4747 38.7564 52.2373 38.7079 52.0165 38.6139C51.7957 38.5199 51.5962 38.3823 51.4299 38.2093C51.2636 38.0363 51.134 37.8315 51.0489 37.6071C50.9636 37.3828 50.9246 37.1435 50.9341 36.9038Z" fill="#111119"></path></svg>